<svg width="32" height="31" viewBox="0 0 32 31" fill="none" xmlns="http://www.w3.org/2000/svg">
<ellipse cx="16" cy="15.5" rx="16" ry="15.5" fill="#EAE8F7"/>
<path d="M21.5 11H10.5C9.94771 11 9.5 11.4477 9.5 12V19C9.5 19.5523 9.94771 20 10.5 20H21.5C22.0523 20 22.5 19.5523 22.5 19V12C22.5 11.4477 22.0523 11 21.5 11Z" stroke="#543CDA" stroke-linecap="round" stroke-linejoin="round"/>
<path d="M16 17.5C17.1046 17.5 18 16.6046 18 15.5C18 14.3954 17.1046 13.5 16 13.5C14.8954 13.5 14 14.3954 14 15.5C14 16.6046 14.8954 17.5 16 17.5Z" stroke="#543CDA" stroke-linecap="round" stroke-linejoin="round"/>
<path d="M11.7754 15.75C11.6373 15.75 11.5254 15.6381 11.5254 15.5C11.5254 15.3619 11.6373 15.25 11.7754 15.25" stroke="#543CDA" stroke-linecap="round" stroke-linejoin="round"/>
<path d="M11.7754 15.75C11.9135 15.75 12.0254 15.6381 12.0254 15.5C12.0254 15.3619 11.9135 15.25 11.7754 15.25" stroke="#543CDA" stroke-linecap="round" stroke-linejoin="round"/>
<path d="M20.2246 15.75C20.0865 15.75 19.9746 15.6381 19.9746 15.5C19.9746 15.3619 20.0865 15.25 20.2246 15.25" stroke="#543CDA" stroke-linecap="round" stroke-linejoin="round"/>
<path d="M20.2246 15.75C20.3627 15.75 20.4746 15.6381 20.4746 15.5C20.4746 15.3619 20.3627 15.25 20.2246 15.25" stroke="#543CDA" stroke-linecap="round" stroke-linejoin="round"/>
</svg>
