<svg width="21" height="21" viewBox="0 0 21 21" fill="none" xmlns="http://www.w3.org/2000/svg">
<g clip-path="url(#clip0_799_5920)">
<path d="M9.76571 19.6047C8.98811 20.1054 8.06257 20.3249 7.14293 20.2266C6.22331 20.1284 5.365 19.7184 4.71071 19.0647L4.14071 18.4947C3.8879 18.2391 3.74609 17.8943 3.74609 17.5347C3.74609 17.1753 3.8879 16.8303 4.14071 16.5747L6.54071 14.1897C6.79372 13.9378 7.1362 13.7964 7.49321 13.7964C7.85023 13.7964 8.19271 13.9378 8.44571 14.1897C8.70127 14.4426 9.04624 14.5844 9.40571 14.5844C9.76519 14.5844 10.1102 14.4426 10.3657 14.1897L14.1907 10.3647C14.4435 10.1092 14.5853 9.76421 14.5853 9.40474C14.5853 9.04526 14.4435 8.70029 14.1907 8.44474C13.9388 8.19173 13.7974 7.84925 13.7974 7.49224C13.7974 7.13522 13.9388 6.79274 14.1907 6.53974L16.5007 4.13974C16.7563 3.88691 17.1013 3.74512 17.4607 3.74512C17.8202 3.74512 18.1652 3.88691 18.4207 4.13974L18.9907 4.70974C19.6561 5.3548 20.0801 6.20854 20.192 7.12849C20.3041 8.04844 20.0971 8.97896 19.6057 9.76474C16.9901 13.6479 13.6489 16.9892 9.76571 19.6047Z" stroke="black" stroke-width="1.5" stroke-linecap="round" stroke-linejoin="round"/>
<path d="M10.5 0.75C9.21961 0.75 7.95175 1.00219 6.76884 1.49217C5.58591 1.98216 4.51109 2.70035 3.60572 3.60572C2.70033 4.51109 1.98216 5.58591 1.49217 6.76884C1.00219 7.95175 0.75 9.21961 0.75 10.5" stroke="black" stroke-width="1.5" stroke-linecap="round" stroke-linejoin="round"/>
<path d="M10.5 4.5C8.90869 4.5 7.38258 5.13214 6.25735 6.25735C5.13214 7.38258 4.5 8.90869 4.5 10.5" stroke="black" stroke-width="1.5" stroke-linecap="round" stroke-linejoin="round"/>
</g>
<defs>
<clipPath id="clip0_799_5920">
<rect width="21" height="21" fill="white"/>
</clipPath>
</defs>
</svg>
