<svg width="32" height="31" viewBox="0 0 32 31" fill="none" xmlns="http://www.w3.org/2000/svg">
<ellipse cx="16" cy="15.5" rx="16" ry="15.5" fill="#EAE8F7"/>
<g clip-path="url(#clip0_799_5861)">
<path d="M16 22C19.5899 22 22.5 19.0899 22.5 15.5C22.5 11.9102 19.5899 9 16 9C12.4102 9 9.5 11.9102 9.5 15.5C9.5 19.0899 12.4102 22 16 22Z" stroke="#543CDA" stroke-linecap="round" stroke-linejoin="round"/>
<path d="M19.1339 13.7495L17.6149 14.4227V13.6148C17.6149 13.4719 17.5582 13.3349 17.4572 13.2339C17.3562 13.1329 17.2192 13.0762 17.0763 13.0762H13.0367C12.8938 13.0762 12.7568 13.1329 12.6558 13.2339C12.5548 13.3349 12.498 13.4719 12.498 13.6148V17.3851C12.498 17.528 12.5548 17.665 12.6558 17.766C12.7568 17.867 12.8938 17.9238 13.0367 17.9238H17.0763C17.2192 17.9238 17.3562 17.867 17.4572 17.766C17.5582 17.665 17.6149 17.528 17.6149 17.3851V16.5772L19.1339 17.2505C19.1748 17.2663 19.219 17.2718 19.2626 17.2667C19.3062 17.2615 19.3478 17.2457 19.384 17.2208C19.4201 17.1958 19.4495 17.1624 19.4698 17.1235C19.49 17.0845 19.5004 17.0412 19.5001 16.9973V14.0026C19.5004 13.9587 19.49 13.9154 19.4698 13.8765C19.4495 13.8375 19.4201 13.8041 19.384 13.7792C19.3478 13.7542 19.3062 13.7385 19.2626 13.7333C19.219 13.7281 19.1748 13.7337 19.1339 13.7495Z" stroke="#543CDA" stroke-linecap="round" stroke-linejoin="round"/>
</g>
<defs>
<clipPath id="clip0_799_5861">
<rect width="14" height="14" fill="white" transform="translate(9 8.5)"/>
</clipPath>
</defs>
</svg>
