<svg width="32" height="31" viewBox="0 0 32 31" fill="none" xmlns="http://www.w3.org/2000/svg">
<ellipse cx="16" cy="15.5" rx="16" ry="15.5" fill="#EAE8F7"/>
<g clip-path="url(#clip0_799_5826)">
<path d="M21.5 12H10.5C9.94771 12 9.5 12.4477 9.5 13V21C9.5 21.5523 9.94771 22 10.5 22H21.5C22.0523 22 22.5 21.5523 22.5 21V13C22.5 12.4477 22.0523 12 21.5 12Z" stroke="#543CDA" stroke-width="1.3" stroke-linecap="round" stroke-linejoin="round"/>
<path d="M14 9H18C18.2652 9 18.5196 9.10536 18.7071 9.29289C18.8946 9.48043 19 9.73478 19 10V12H13V10C13 9.73478 13.1054 9.48043 13.2929 9.29289C13.4804 9.10536 13.7348 9 14 9Z" stroke="#543CDA" stroke-width="1.3" stroke-linecap="round" stroke-linejoin="round"/>
<path d="M12.5 15.5H19.5" stroke="#543CDA" stroke-width="1.3" stroke-linecap="round" stroke-linejoin="round"/>
<path d="M12.5 18.5H19.5" stroke="#543CDA" stroke-width="1.3" stroke-linecap="round" stroke-linejoin="round"/>
</g>
<defs>
<clipPath id="clip0_799_5826">
<rect width="14" height="14" fill="white" transform="translate(9 8.5)"/>
</clipPath>
</defs>
</svg>
