<svg width="32" height="32" viewBox="0 0 32 32" fill="none" xmlns="http://www.w3.org/2000/svg">
<ellipse cx="16" cy="16" rx="16" ry="15.5" fill="#EAE8F7"/>
<g clip-path="url(#clip0_799_5876)">
<path d="M16 22.5C19.5 22.5 22 21.2619 22 18.5061C22 15.5107 20.5 13.5138 17.5 12.0161L18.68 10.4985C18.74 10.3989 18.7725 10.2853 18.7743 10.1691C18.776 10.0529 18.747 9.93835 18.6902 9.83698C18.6333 9.73561 18.5507 9.65105 18.4505 9.59187C18.3504 9.53269 18.2364 9.501 18.12 9.5H13.88C13.7636 9.501 13.6496 9.53269 13.5495 9.59187C13.4493 9.65105 13.3667 9.73561 13.3098 9.83698C13.253 9.93835 13.224 10.0529 13.2257 10.1691C13.2275 10.2853 13.2601 10.3989 13.32 10.4985L14.5 12.0261C11.5 13.5338 10 15.5307 10 18.5261C10 21.2619 12.5 22.5 16 22.5Z" stroke="#543CDA" stroke-linecap="round" stroke-linejoin="round"/>
<path d="M17.3819 15.8062C17.3344 15.6716 17.261 15.5493 17.1677 15.4451C16.9694 15.2235 16.6811 15.084 16.3603 15.084H15.5217C14.9876 15.084 14.5547 15.5169 14.5547 16.051C14.5547 16.5054 14.8711 16.8986 15.3151 16.9957L16.5918 17.275C17.0891 17.3838 17.4436 17.8245 17.4436 18.3336C17.4436 18.9319 16.9586 19.4174 16.3603 19.4174H15.638C15.1663 19.4174 14.7651 19.1159 14.6163 18.6951" stroke="#543CDA" stroke-linecap="round" stroke-linejoin="round"/>
<path d="M16 15.0833V14" stroke="#543CDA" stroke-linecap="round" stroke-linejoin="round"/>
<path d="M16 20.5004V19.417" stroke="#543CDA" stroke-linecap="round" stroke-linejoin="round"/>
</g>
<defs>
<clipPath id="clip0_799_5876">
<rect width="14" height="14" fill="white" transform="translate(9 9)"/>
</clipPath>
</defs>
</svg>
