<svg width="276" height="264" viewBox="0 0 276 264" fill="none" xmlns="http://www.w3.org/2000/svg">
<g filter="url(#filter0_f_799_4456)">
<ellipse cx="132.607" cy="217.338" rx="110.607" ry="21.3375" fill="#AD9EFD"/>
</g>
<path d="M136.701 243.402C200.049 243.402 251.402 192.049 251.402 128.701C251.402 65.3534 200.049 14 136.701 14C73.3534 14 22 65.3534 22 128.701C22 192.049 73.3534 243.402 136.701 243.402Z" fill="url(#paint0_linear_799_4456)"/>
<path d="M225.432 60.3652H79.7422V132.262H225.432V60.3652Z" fill="#C8C1EF"/>
<path d="M225.434 60.3652H240.057C249.59 60.3652 258.732 64.1522 265.473 70.893C272.214 77.6338 276.001 86.7763 276.001 96.3093C276.001 105.842 272.214 114.985 265.473 121.726C258.732 128.466 249.59 132.253 240.057 132.253H225.434V60.3652Z" fill="#C8C1EF"/>
<path d="M234.893 70.9414H243.258C249.692 70.9414 255.863 73.4973 260.412 78.0467C264.962 82.5962 267.517 88.7666 267.517 95.2005V97.4274C267.517 103.861 264.962 110.032 260.412 114.581C255.863 119.131 249.692 121.686 243.258 121.686H234.893V70.9414Z" fill="url(#paint1_linear_799_4456)"/>
<path d="M225.433 72.4316H91.9785V132.262H225.433V72.4316Z" fill="url(#paint2_linear_799_4456)"/>
<rect x="44.9336" y="144.231" width="54.1073" height="69.2953" fill="url(#paint3_linear_799_4456)"/>
<rect x="111.383" y="144.231" width="54.1073" height="69.2953" fill="url(#paint4_linear_799_4456)"/>
<rect x="177.832" y="144.231" width="35.1223" height="69.2953" fill="url(#paint5_linear_799_4456)"/>
<path d="M225.435 60.3652H212.996V132.262H225.435V60.3652Z" fill="#C8C1EF"/>
<path d="M111.381 131.891L99.041 131.891L99.041 225.866L111.381 225.866L111.381 131.891Z" fill="url(#paint6_linear_799_4456)"/>
<path d="M171.185 131.891V144.23H45.4629V213.526H171.185V225.866H37.3398C34.7186 225.866 32.5937 223.741 32.5938 221.12V136.637C32.5938 134.016 34.7187 131.891 37.3398 131.891H171.185Z" fill="url(#paint7_linear_799_4456)"/>
<path d="M225.293 131.891V221.12C225.293 223.741 223.168 225.866 220.547 225.866H165.49V136.637C165.49 134.016 167.615 131.891 170.236 131.891H225.293ZM177.83 144.23V213.526H212.952L212.953 144.23H177.83Z" fill="url(#paint8_linear_799_4456)"/>
<path d="M89.5059 132.415V132.551V136.827V167.978H123.502C124.026 167.978 124.451 167.553 124.451 167.029V136.827V133.364C124.451 132.84 124.026 132.415 123.501 132.415H89.5059Z" fill="#C8C1EF"/>
<path d="M87.4493 132.415C86.925 132.415 86.5 132.84 86.5 133.364V167.029C86.5 167.553 86.925 167.978 87.4493 167.978H121.445V132.415H87.4493Z" fill="#C8C1EF"/>
<path d="M115.618 135.818H92.336C91.2875 135.818 90.4375 136.668 90.4375 137.717V162.387C90.4375 163.436 91.2875 164.286 92.336 164.286H115.618C116.666 164.286 117.516 163.436 117.516 162.387V137.717C117.516 136.668 116.666 135.818 115.618 135.818Z" fill="#C8C1EF"/>
<g filter="url(#filter1_d_799_4456)">
<path d="M25 108.348L38.1414 140.668C38.3209 141.111 38.586 141.514 38.9217 141.854C39.2574 142.195 39.6569 142.465 40.0974 142.651C40.5379 142.837 41.0108 142.934 41.4888 142.936C41.9668 142.939 42.4406 142.847 42.8831 142.666L72.3327 130.701C73.2282 130.337 73.9424 129.632 74.3187 128.741C74.6949 127.851 74.7024 126.847 74.3394 125.951L59.149 88.5932C58.7846 87.6998 58.0806 86.9876 57.1916 86.6129C56.3025 86.2382 55.3011 86.2318 54.4072 86.5949L29.9365 96.544L25 108.348Z" fill="url(#paint9_linear_799_4456)"/>
</g>
<g filter="url(#filter2_d_799_4456)">
<path d="M233.133 89.3622L219.991 121.682C219.812 122.125 219.547 122.529 219.211 122.869C218.875 123.209 218.476 123.48 218.035 123.666C217.595 123.851 217.122 123.948 216.644 123.951C216.166 123.953 215.692 123.861 215.25 123.681L185.8 111.716C184.905 111.352 184.19 110.647 183.814 109.756C183.438 108.866 183.43 107.862 183.793 106.966L198.984 69.6078C199.348 68.7145 200.052 68.0022 200.941 67.6276C201.83 67.2529 202.832 67.2464 203.726 67.6095L228.196 77.5587L233.133 89.3622Z" fill="url(#paint10_linear_799_4456)"/>
</g>
<path d="M25 108.347L33.3573 104.952L29.945 96.5439L25 108.347Z" fill="#C8C1EF"/>
<path d="M233.133 89.3621L224.776 85.9667L228.188 77.5586L233.133 89.3621Z" fill="#C8C1EF"/>
<path d="M107.542 151.246C108.62 150.489 109.428 149.407 109.849 148.16C110.271 146.912 110.284 145.562 109.887 144.306C109.49 143.05 108.703 141.954 107.64 141.175C106.577 140.397 105.295 139.978 103.977 139.978C102.66 139.978 101.377 140.397 100.315 141.175C99.2522 141.954 98.4652 143.05 98.068 144.306C97.6707 145.562 97.6838 146.912 98.1054 148.16C98.527 149.407 99.3352 150.489 100.413 151.246L97.7539 160.399H110.192L107.542 151.246Z" fill="url(#paint11_linear_799_4456)"/>
<path d="M184.155 55.1923C184.155 56.5242 183.955 57.8485 183.563 59.1211C182.926 61.1617 181.801 63.0161 180.286 64.5233C179.841 64.9737 179.362 65.3898 178.855 65.768C178.521 66.0282 178.17 66.2658 177.805 66.4793C177.441 66.7026 177.065 66.9061 176.679 67.089C176.103 67.3731 175.506 67.611 174.892 67.8002C173.619 68.193 172.295 68.3928 170.963 68.3929H168.508V132.025H99.9219V53.8121C99.933 50.6828 101.181 47.6848 103.394 45.4721C105.607 43.2593 108.605 42.0113 111.734 42.0001H170.929C172.578 41.9938 174.213 42.3012 175.747 42.9061C176.173 43.0711 176.588 43.2605 176.992 43.4734C177.195 43.575 177.39 43.6851 177.585 43.8036C177.745 43.8915 177.9 43.9876 178.05 44.0915C178.851 44.5975 179.592 45.1911 180.26 45.8612C181.158 46.7609 181.922 47.7845 182.53 48.901C182.94 49.6534 183.275 50.4448 183.529 51.2634L183.707 51.8985C183.816 52.3227 183.904 52.7523 183.969 53.1855C184.083 53.8486 184.145 54.5195 184.155 55.1923Z" fill="url(#paint12_linear_799_4456)"/>
<path d="M184.156 55.1924C184.155 56.5243 183.956 57.8486 183.563 59.1213C183.303 59.9378 182.969 60.7286 182.564 61.4837C181.95 62.5986 181.184 63.6218 180.286 64.5235C179.841 64.9738 179.363 65.3899 178.855 65.7682C178.516 66.0222 178.169 66.2508 177.805 66.4794C177.441 66.7027 177.065 66.9062 176.679 67.0891C176.102 67.3697 175.504 67.6074 174.892 67.8004C173.62 68.1931 172.295 68.3929 170.963 68.3931H168.508V53.8122C168.513 51.4805 169.206 49.2022 170.5 47.2624C171.794 45.3225 173.631 43.8073 175.781 42.9062C176.205 43.0756 176.628 43.2619 177.026 43.4736C177.229 43.5752 177.424 43.6853 177.619 43.8038C177.779 43.8917 177.934 43.9878 178.084 44.0917C178.885 44.5977 179.626 45.1912 180.294 45.8614C181.192 46.761 181.956 47.7847 182.564 48.9012C182.971 49.6553 183.305 50.4463 183.563 51.2636L183.741 51.8986C183.851 52.3227 183.939 52.7523 184.003 53.1857C184.106 53.8496 184.157 54.5206 184.156 55.1924Z" fill="url(#paint13_linear_799_4456)"/>
<path d="M154.815 108.858H111.504C110.779 108.858 110.191 109.444 110.191 110.167C110.191 110.889 110.779 111.475 111.504 111.475H154.815C155.539 111.475 156.127 110.889 156.127 110.167C156.127 109.444 155.539 108.858 154.815 108.858Z" fill="#A799F0"/>
<path d="M154.815 95.4375H111.504C110.779 95.4375 110.191 96.0232 110.191 96.7457C110.191 97.4682 110.779 98.0539 111.504 98.0539H154.815C155.539 98.0539 156.127 97.4682 156.127 96.7457C156.127 96.0232 155.539 95.4375 154.815 95.4375Z" fill="#A799F0"/>
<path d="M154.815 82.0078H126.924C126.199 82.0078 125.611 82.5935 125.611 83.316C125.611 84.0385 126.199 84.6242 126.924 84.6242H154.815C155.54 84.6242 156.128 84.0385 156.128 83.316C156.128 82.5935 155.54 82.0078 154.815 82.0078Z" fill="#A799F0"/>
<path d="M136.517 68.5791H111.199C110.643 68.5791 110.191 69.0302 110.191 69.5867V70.1879C110.191 70.7444 110.643 71.1955 111.199 71.1955H136.517C137.073 71.1955 137.524 70.7444 137.524 70.1879V69.5867C137.524 69.0302 137.073 68.5791 136.517 68.5791Z" fill="#A799F0"/>
<path d="M120.818 82.0078H111.504C110.779 82.0078 110.191 82.5935 110.191 83.316C110.191 84.0385 110.779 84.6242 111.504 84.6242H120.818C121.543 84.6242 122.13 84.0385 122.13 83.316C122.13 82.5935 121.543 82.0078 120.818 82.0078Z" fill="#A799F0"/>
<path d="M45.4082 144.231H49.6798V213.527H45.4082V144.231Z" fill="url(#paint14_linear_799_4456)"/>
<path d="M111.383 167.963H115.18V213.527H111.383V167.963Z" fill="url(#paint15_linear_799_4456)"/>
<path d="M177.832 144.231H182.104V213.527H177.832V144.231Z" fill="url(#paint16_linear_799_4456)"/>
<g filter="url(#filter3_f_799_4456)">
<ellipse cx="61.5786" cy="85.7574" rx="36.5786" ry="11.7574" fill="#FF4C77" fill-opacity="0.3"/>
</g>
<path d="M27.2779 68.6242C27.9834 73.8909 30.0114 78.8932 33.1727 83.1643C36.334 87.4354 40.5256 90.8362 45.3565 93.0495C50.1874 95.2628 55.5002 96.2164 60.7992 95.8214C66.0983 95.4264 71.211 93.6956 75.6604 90.7906L87.7827 94.9116C88.1484 95.0322 88.541 95.0454 88.914 94.9499C89.287 94.8543 89.6248 94.654 89.8875 94.3725C90.1502 94.091 90.3268 93.7402 90.3964 93.3615C90.4661 92.9828 90.4258 92.5921 90.2804 92.2356L85.4189 80.6395C88.0045 76.3322 89.5206 71.4682 89.8405 66.4547C90.1604 61.4411 89.2746 56.4239 87.2574 51.823C85.2402 47.222 82.1502 43.1712 78.2461 40.0096C74.3419 36.848 69.7373 34.6676 64.8175 33.6509C59.8977 32.6341 54.806 32.8107 49.9684 34.1658C45.1309 35.5208 40.6884 38.015 37.0126 41.4395C33.3369 44.8639 30.5349 49.119 28.8413 53.8487C27.1476 58.5783 26.6116 63.6449 27.2779 68.6242Z" fill="url(#paint17_linear_799_4456)"/>
<path d="M57.6295 80.545C61.0448 80.545 63.4777 78.2057 63.4777 74.9307C63.4777 71.6557 61.0448 69.3164 57.6295 69.3164C54.2609 69.3164 51.7813 71.6557 51.7813 74.9307C51.7813 78.2057 54.2609 80.545 57.6295 80.545ZM62.3081 68.3807C62.3081 65.2929 64.0859 64.17 66.5188 63.0471C69.747 61.55 72.1331 58.5089 72.1331 54.7661C72.1331 48.8711 66.3316 44.7539 58.4716 44.7539C50.0502 44.7539 44.1084 49.4793 43.5938 56.0761L54.3545 58.0411C54.6352 55.4678 55.992 53.6432 57.9102 53.6432C59.3605 53.6432 60.4366 54.6257 60.4366 55.9825C60.4366 57.5732 58.8459 58.5557 57.5827 59.3043C54.2141 61.5032 52.9509 63.9361 52.9509 68.3807H62.3081Z" fill="white"/>
<path d="M210.099 41.3066C212.744 41.3068 214.889 43.4513 214.889 46.0967C214.889 48.742 212.744 50.8866 210.099 50.8867C207.453 50.8867 205.309 48.742 205.309 46.0967C205.309 43.4512 207.453 41.3066 210.099 41.3066Z" stroke="url(#paint18_linear_799_4456)" stroke-width="2.61276"/>
<circle cx="182.098" cy="237.096" r="4.79006" stroke="url(#paint19_linear_799_4456)" stroke-width="2.61276"/>
<path d="M21.0311 175.236C22.3551 175.024 23.4121 176.325 22.9337 177.577L19.7047 186.033C19.2263 187.285 17.5713 187.55 16.7257 186.51L11.0177 179.486C10.1721 178.445 10.7701 176.879 12.0941 176.667L21.0311 175.236Z" fill="#C8C1EF"/>
<path d="M241.98 168.006C241.649 166.707 242.848 165.536 244.139 165.899L252.852 168.348C254.143 168.71 254.557 170.335 253.598 171.271L247.121 177.593C246.161 178.529 244.547 178.076 244.216 176.777L241.98 168.006Z" fill="#C8C1EF"/>
<path d="M125.87 8.41711C126.385 6.28414 129.419 6.28414 129.934 8.41711L131.667 15.5959C131.851 16.3582 132.446 16.9533 133.208 17.1373L140.387 18.8702C142.52 19.3851 142.52 22.419 140.387 22.9339L133.208 24.6668C132.446 24.8508 131.851 25.446 131.667 26.2082L129.934 33.387C129.419 35.52 126.385 35.52 125.87 33.387L124.137 26.2082C123.953 25.446 123.358 24.8508 122.596 24.6668L115.417 22.9339C113.284 22.419 113.284 19.3851 115.417 18.8702L122.596 17.1373C123.358 16.9533 123.953 16.3582 124.137 15.5959L125.87 8.41711Z" fill="#C8C1EF"/>
<path d="M72.8702 230.417C73.3851 228.284 76.419 228.284 76.9339 230.417L78.6668 237.596C78.8508 238.358 79.446 238.953 80.2082 239.137L87.387 240.87C89.52 241.385 89.52 244.419 87.387 244.934L80.2082 246.667C79.446 246.851 78.8508 247.446 78.6668 248.208L76.9339 255.387C76.419 257.52 73.3851 257.52 72.8702 255.387L71.1373 248.208C70.9533 247.446 70.3582 246.851 69.5959 246.667L62.4171 244.934C60.2841 244.419 60.2841 241.385 62.4171 240.87L69.5959 239.137C70.3582 238.953 70.9533 238.358 71.1373 237.596L72.8702 230.417Z" fill="#C8C1EF"/>
<defs>
<filter id="filter0_f_799_4456" x="0.227005" y="174.227" width="264.759" height="86.2208" filterUnits="userSpaceOnUse" color-interpolation-filters="sRGB">
<feFlood flood-opacity="0" result="BackgroundImageFix"/>
<feBlend mode="normal" in="SourceGraphic" in2="BackgroundImageFix" result="shape"/>
<feGaussianBlur stdDeviation="10.8865" result="effect1_foregroundBlur_799_4456"/>
</filter>
<filter id="filter1_d_799_4456" x="22.1522" y="86.3271" width="68.5905" height="76.5436" filterUnits="userSpaceOnUse" color-interpolation-filters="sRGB">
<feFlood flood-opacity="0" result="BackgroundImageFix"/>
<feColorMatrix in="SourceAlpha" type="matrix" values="0 0 0 0 0 0 0 0 0 0 0 0 0 0 0 0 0 0 127 0" result="hardAlpha"/>
<feOffset dx="6.64476" dy="10.4418"/>
<feGaussianBlur stdDeviation="4.74626"/>
<feComposite in2="hardAlpha" operator="out"/>
<feColorMatrix type="matrix" values="0 0 0 0 0.184314 0 0 0 0 0.254902 0 0 0 0 0.443137 0 0 0 0.15 0"/>
<feBlend mode="normal" in2="BackgroundImageFix" result="effect1_dropShadow_799_4456"/>
<feBlend mode="normal" in="SourceGraphic" in2="effect1_dropShadow_799_4456" result="shape"/>
</filter>
<filter id="filter2_d_799_4456" x="180.68" y="67.3418" width="68.5905" height="76.5436" filterUnits="userSpaceOnUse" color-interpolation-filters="sRGB">
<feFlood flood-opacity="0" result="BackgroundImageFix"/>
<feColorMatrix in="SourceAlpha" type="matrix" values="0 0 0 0 0 0 0 0 0 0 0 0 0 0 0 0 0 0 127 0" result="hardAlpha"/>
<feOffset dx="6.64476" dy="10.4418"/>
<feGaussianBlur stdDeviation="4.74626"/>
<feComposite in2="hardAlpha" operator="out"/>
<feColorMatrix type="matrix" values="0 0 0 0 0.184314 0 0 0 0 0.254902 0 0 0 0 0.443137 0 0 0 0.15 0"/>
<feBlend mode="normal" in2="BackgroundImageFix" result="effect1_dropShadow_799_4456"/>
<feBlend mode="normal" in="SourceGraphic" in2="effect1_dropShadow_799_4456" result="shape"/>
</filter>
<filter id="filter3_f_799_4456" x="3.22701" y="52.227" width="116.704" height="67.0606" filterUnits="userSpaceOnUse" color-interpolation-filters="sRGB">
<feFlood flood-opacity="0" result="BackgroundImageFix"/>
<feBlend mode="normal" in="SourceGraphic" in2="BackgroundImageFix" result="shape"/>
<feGaussianBlur stdDeviation="10.8865" result="effect1_foregroundBlur_799_4456"/>
</filter>
<linearGradient id="paint0_linear_799_4456" x1="135.817" y1="-23.3495" x2="138.167" y2="379.463" gradientUnits="userSpaceOnUse">
<stop stop-color="#CAE0FF" stop-opacity="0"/>
<stop offset="1" stop-color="#CAC3F1"/>
</linearGradient>
<linearGradient id="paint1_linear_799_4456" x1="272.282" y1="123.347" x2="240.007" y2="80.6312" gradientUnits="userSpaceOnUse">
<stop stop-color="#EDF4FF"/>
<stop offset="1" stop-color="#CCC5F5"/>
</linearGradient>
<linearGradient id="paint2_linear_799_4456" x1="158.706" y1="72.4316" x2="158.706" y2="132.262" gradientUnits="userSpaceOnUse">
<stop stop-color="#8473E3"/>
<stop offset="1" stop-color="#9386DB"/>
</linearGradient>
<linearGradient id="paint3_linear_799_4456" x1="113.754" y1="239.157" x2="47.3067" y2="176.506" gradientUnits="userSpaceOnUse">
<stop stop-color="#EDF4FF"/>
<stop offset="1" stop-color="#CAC3F1"/>
</linearGradient>
<linearGradient id="paint4_linear_799_4456" x1="168.338" y1="219.697" x2="101.89" y2="192.169" gradientUnits="userSpaceOnUse">
<stop stop-color="#EDF4FF"/>
<stop offset="1" stop-color="#CAC3F1"/>
</linearGradient>
<linearGradient id="paint5_linear_799_4456" x1="227.193" y1="221.121" x2="165.492" y2="162.742" gradientUnits="userSpaceOnUse">
<stop stop-color="#EDF4FF"/>
<stop offset="1" stop-color="#CAC3F1"/>
</linearGradient>
<linearGradient id="paint6_linear_799_4456" x1="83.853" y1="160.843" x2="75.3097" y2="243.902" gradientUnits="userSpaceOnUse">
<stop stop-color="#CAC3F1"/>
<stop offset="1" stop-color="#9584F3"/>
</linearGradient>
<linearGradient id="paint7_linear_799_4456" x1="30.2206" y1="148.502" x2="165.963" y2="211.153" gradientUnits="userSpaceOnUse">
<stop stop-color="#CAC3F1"/>
<stop offset="1" stop-color="#9584F3"/>
</linearGradient>
<linearGradient id="paint8_linear_799_4456" x1="272.281" y1="190.269" x2="187.323" y2="193.117" gradientUnits="userSpaceOnUse">
<stop stop-color="#B7ADEE"/>
<stop offset="1" stop-color="#9486E6"/>
</linearGradient>
<linearGradient id="paint9_linear_799_4456" x1="69.2227" y1="111.521" x2="35.8226" y2="108.186" gradientUnits="userSpaceOnUse">
<stop stop-color="#C6DDFF"/>
<stop offset="1" stop-color="white"/>
</linearGradient>
<linearGradient id="paint10_linear_799_4456" x1="188.91" y1="92.5354" x2="222.31" y2="89.2006" gradientUnits="userSpaceOnUse">
<stop stop-color="#C6DDFF"/>
<stop offset="1" stop-color="white"/>
</linearGradient>
<linearGradient id="paint11_linear_799_4456" x1="100.941" y1="154.673" x2="113.281" y2="155.147" gradientUnits="userSpaceOnUse">
<stop stop-color="#6756C4"/>
<stop offset="1" stop-color="#988CDD"/>
</linearGradient>
<linearGradient id="paint12_linear_799_4456" x1="142.039" y1="42" x2="142.039" y2="132.025" gradientUnits="userSpaceOnUse">
<stop stop-color="#EDF4FF"/>
<stop offset="1" stop-color="#CAC3F1"/>
</linearGradient>
<linearGradient id="paint13_linear_799_4456" x1="178.305" y1="64.9689" x2="159.795" y2="50.7302" gradientUnits="userSpaceOnUse">
<stop stop-color="#EDF4FF"/>
<stop offset="1" stop-color="#CAC3F1"/>
</linearGradient>
<linearGradient id="paint14_linear_799_4456" x1="15.5068" y1="210.204" x2="105.362" y2="200.11" gradientUnits="userSpaceOnUse">
<stop offset="0.09375" stop-color="#634CE1"/>
<stop offset="1" stop-color="#2A64BE" stop-opacity="0"/>
</linearGradient>
<linearGradient id="paint15_linear_799_4456" x1="84.8038" y1="211.342" x2="163.86" y2="199.336" gradientUnits="userSpaceOnUse">
<stop offset="0.09375" stop-color="#634CE1"/>
<stop offset="1" stop-color="#2A64BE" stop-opacity="0"/>
</linearGradient>
<linearGradient id="paint16_linear_799_4456" x1="147.931" y1="210.204" x2="221.572" y2="216.666" gradientUnits="userSpaceOnUse">
<stop offset="0.09375" stop-color="#634CE2"/>
<stop offset="1" stop-color="#9182E9"/>
</linearGradient>
<linearGradient id="paint17_linear_799_4456" x1="27.3033" y1="37.2325" x2="89.9793" y2="96.6361" gradientUnits="userSpaceOnUse">
<stop stop-color="#FF698D"/>
<stop offset="1" stop-color="#FF3868"/>
</linearGradient>
<linearGradient id="paint18_linear_799_4456" x1="202.605" y1="42.2862" x2="221.656" y2="58.7974" gradientUnits="userSpaceOnUse">
<stop stop-color="#A79CE3"/>
<stop offset="1" stop-color="#816FE8"/>
</linearGradient>
<linearGradient id="paint19_linear_799_4456" x1="174.605" y1="233.286" x2="193.656" y2="249.797" gradientUnits="userSpaceOnUse">
<stop stop-color="#A79CE3"/>
<stop offset="1" stop-color="#816FE8"/>
</linearGradient>
</defs>
</svg>
