<svg width="21" height="21" viewBox="0 0 21 21" fill="none" xmlns="http://www.w3.org/2000/svg">
<path d="M18.75 3.75H2.25C1.42157 3.75 0.75 4.42158 0.75 5.25V15.75C0.75 16.5784 1.42157 17.25 2.25 17.25H18.75C19.5784 17.25 20.25 16.5784 20.25 15.75V5.25C20.25 4.42158 19.5784 3.75 18.75 3.75Z" stroke="#543CDA" stroke-width="1.5" stroke-linecap="round" stroke-linejoin="round"/>
<path d="M10.5 13.5C12.1569 13.5 13.5 12.1569 13.5 10.5C13.5 8.84314 12.1569 7.5 10.5 7.5C8.84314 7.5 7.5 8.84314 7.5 10.5C7.5 12.1569 8.84314 13.5 10.5 13.5Z" stroke="#543CDA" stroke-width="1.5" stroke-linecap="round" stroke-linejoin="round"/>
<path d="M4.16211 10.875C3.955 10.875 3.78711 10.7071 3.78711 10.5C3.78711 10.2929 3.955 10.125 4.16211 10.125" stroke="#543CDA" stroke-width="1.5" stroke-linecap="round" stroke-linejoin="round"/>
<path d="M4.16211 10.875C4.36921 10.875 4.53711 10.7071 4.53711 10.5C4.53711 10.2929 4.36921 10.125 4.16211 10.125" stroke="#543CDA" stroke-width="1.5" stroke-linecap="round" stroke-linejoin="round"/>
<path d="M16.8379 10.875C16.6307 10.875 16.4629 10.7071 16.4629 10.5C16.4629 10.2929 16.6307 10.125 16.8379 10.125" stroke="#543CDA" stroke-width="1.5" stroke-linecap="round" stroke-linejoin="round"/>
<path d="M16.8379 10.875C17.045 10.875 17.2129 10.7071 17.2129 10.5C17.2129 10.2929 17.045 10.125 16.8379 10.125" stroke="#543CDA" stroke-width="1.5" stroke-linecap="round" stroke-linejoin="round"/>
</svg>
