<svg width="21" height="21" viewBox="0 0 21 21" fill="none" xmlns="http://www.w3.org/2000/svg">
<g clip-path="url(#clip0_799_7890)">
<path d="M7.84573 3.375L8.49073 1.71C8.59951 1.4281 8.7909 1.18562 9.03981 1.01432C9.28873 0.843021 9.58357 0.750892 9.88573 0.75H11.1157C11.4179 0.750892 11.7127 0.843021 11.9617 1.01432C12.2106 1.18562 12.402 1.4281 12.5107 1.71L13.1557 3.375L15.3457 4.635L17.1157 4.365C17.4104 4.325 17.7104 4.3735 17.9776 4.50438C18.2446 4.63525 18.4667 4.84257 18.6157 5.1L19.2157 6.15C19.3694 6.41152 19.4404 6.71352 19.4189 7.01613C19.3975 7.31874 19.2848 7.60775 19.0957 7.845L18.0007 9.24V11.76L19.1257 13.155C19.3148 13.3923 19.4275 13.6813 19.4489 13.9839C19.4704 14.2865 19.3994 14.5885 19.2457 14.85L18.6457 15.9C18.4967 16.1574 18.2746 16.3647 18.0076 16.4956C17.7404 16.6264 17.4404 16.6751 17.1457 16.635L15.3757 16.365L13.1857 17.625L12.5407 19.29C12.432 19.5718 12.2406 19.8144 11.9917 19.9857C11.7427 20.157 11.4479 20.2491 11.1457 20.25H9.88573C9.58357 20.2491 9.28873 20.157 9.03981 19.9857C8.7909 19.8144 8.59951 19.5718 8.49073 19.29L7.84573 17.625L5.65573 16.365L3.88573 16.635C3.59101 16.6751 3.29104 16.6264 3.02395 16.4956C2.75688 16.3647 2.53473 16.1574 2.38573 15.9L1.78573 14.85C1.63198 14.5885 1.56115 14.2865 1.58257 13.9839C1.60399 13.6813 1.71667 13.3923 1.90573 13.155L3.00073 11.76V9.24L1.87573 7.845C1.68667 7.60775 1.57399 7.31874 1.55257 7.01613C1.53115 6.71352 1.60198 6.41152 1.75573 6.15L2.35573 5.1C2.50473 4.84257 2.72688 4.63525 2.99395 4.50438C3.26104 4.3735 3.56101 4.325 3.85573 4.365L5.62573 4.635L7.84573 3.375ZM7.50073 10.5C7.50073 11.0933 7.67668 11.6734 8.00632 12.1667C8.33598 12.6601 8.8045 13.0446 9.35268 13.2716C9.90087 13.4987 10.5041 13.5581 11.086 13.4424C11.6679 13.3266 12.2025 13.0409 12.6221 12.6213C13.0416 12.2018 13.3273 11.6672 13.4431 11.0853C13.5588 10.5033 13.4994 9.90014 13.2724 9.35195C13.0453 8.80377 12.6608 8.33523 12.1674 8.00559C11.6741 7.67595 11.0941 7.5 10.5007 7.5C9.70509 7.5 8.94202 7.81607 8.37942 8.37869C7.81681 8.94129 7.50073 9.70435 7.50073 10.5Z" stroke="#543CDA" stroke-width="1.5" stroke-linecap="round" stroke-linejoin="round"/>
</g>
<defs>
<clipPath id="clip0_799_7890">
<rect width="21" height="21" fill="white"/>
</clipPath>
</defs>
</svg>
