<svg width="24" height="27" viewBox="0 0 24 27" fill="none" xmlns="http://www.w3.org/2000/svg">
<path fill-rule="evenodd" clip-rule="evenodd" d="M16.577 24.3839H7.753C4.312 24.3839 2 21.8401 2 18.0545V9.29718C2 5.51155 4.312 2.96777 7.753 2.96777H11.492C11.906 2.96777 12.242 3.32169 12.242 3.75776C12.242 4.19384 11.906 4.54776 11.492 4.54776H7.753C5.169 4.54776 3.5 6.41214 3.5 9.29718V18.0545C3.5 20.9395 5.169 22.8039 7.753 22.8039H16.577C19.161 22.8039 20.831 20.9395 20.831 18.0545V13.8117C20.831 13.3756 21.167 13.0217 21.581 13.0217C21.995 13.0217 22.331 13.3756 22.331 13.8117V18.0545C22.331 21.8401 20.018 24.3839 16.577 24.3839Z" fill="#543CDA"/>
<path fill-rule="evenodd" clip-rule="evenodd" d="M8.86689 17.0737H11.8439C12.2239 17.0737 12.5799 16.9189 12.8489 16.6355L20.3579 8.72612C20.6659 8.40169 20.8359 7.96983 20.8359 7.51058C20.8359 7.05028 20.6659 6.61737 20.3579 6.29294L19.1409 5.01105C18.5039 4.34219 17.4679 4.34219 16.8299 5.01105L9.35689 12.8825C9.09789 13.1553 8.95089 13.5177 8.94189 13.9021L8.86689 17.0737ZM11.8439 18.6537H8.09789C7.89589 18.6537 7.70189 18.5673 7.56089 18.4146C7.41989 18.2629 7.34289 18.0575 7.34789 17.8437L7.44189 13.8632C7.46089 13.0711 7.76389 12.3264 8.29589 11.7649H8.29689L15.7699 3.89348C16.9919 2.60842 18.9789 2.60842 20.2009 3.89348L21.4179 5.17537C22.0109 5.79894 22.3369 6.6279 22.3359 7.51058C22.3359 8.39327 22.0099 9.22118 21.4179 9.84369L13.9089 17.7531C13.3579 18.3335 12.6239 18.6537 11.8439 18.6537Z" fill="#543CDA"/>
<path fill-rule="evenodd" clip-rule="evenodd" d="M19.7318 11.2682C19.5398 11.2682 19.3478 11.1913 19.2018 11.0364L14.6358 6.22697C14.3428 5.91835 14.3428 5.41802 14.6358 5.1094C14.9288 4.80077 15.4028 4.80077 15.6958 5.1094L20.2618 9.91992C20.5548 10.2285 20.5548 10.7278 20.2618 11.0364C20.1158 11.1913 19.9238 11.2682 19.7318 11.2682Z" fill="#543CDA"/>
</svg>
