<svg width="19" height="19" viewBox="0 0 19 19" fill="none" xmlns="http://www.w3.org/2000/svg">
<g clip-path="url(#clip0_799_7878)">
<path d="M12.892 14.2501V16.9644C12.892 17.3243 12.749 17.6696 12.4945 17.9241C12.24 18.1785 11.8948 18.3216 11.5349 18.3216H2.03488C1.67494 18.3216 1.32975 18.1785 1.07523 17.9241C0.820719 17.6696 0.677734 17.3243 0.677734 16.9644V2.03585C0.677734 1.67591 0.820719 1.33072 1.07523 1.07621C1.32975 0.821695 1.67494 0.678711 2.03488 0.678711H11.5349C11.8948 0.678711 12.24 0.821695 12.4945 1.07621C12.749 1.33072 12.892 1.67591 12.892 2.03585V4.75014" stroke="#C43131" stroke-linecap="round" stroke-linejoin="round"/>
<path d="M8.82031 9.5H18.3203" stroke="#C43131" stroke-linecap="round" stroke-linejoin="round"/>
<path d="M15.6055 6.78613L18.3198 9.50042L15.6055 12.2147" stroke="#C43131" stroke-linecap="round" stroke-linejoin="round"/>
</g>
<defs>
<clipPath id="clip0_799_7878">
<rect width="19" height="19" fill="white"/>
</clipPath>
</defs>
</svg>
