<svg width="379" height="287" viewBox="0 0 379 287" fill="none" xmlns="http://www.w3.org/2000/svg">
<path fill-rule="evenodd" clip-rule="evenodd" d="M139.471 200.9C121.051 200.9 106.119 187.087 106.119 170.047C106.119 153.008 121.051 139.195 139.471 139.195C140.254 139.195 141.031 139.22 141.801 139.269C141.266 136.451 140.987 133.549 140.987 130.585C140.987 103.639 164.064 81.7949 192.531 81.7949C215.258 81.7949 234.549 95.7173 241.405 115.043C243.029 114.882 244.679 114.8 246.349 114.8C271.886 114.8 292.587 134.074 292.587 157.85C292.587 180.438 273.903 199.074 250.139 200.869V200.9H164.497H139.471ZM157.657 200.9H147.099Z" fill="white"/>
<path d="M157.657 200.9H147.099M139.471 200.9C121.051 200.9 106.119 187.087 106.119 170.047C106.119 153.008 121.051 139.195 139.471 139.195C140.254 139.195 141.031 139.22 141.801 139.269C141.266 136.451 140.987 133.549 140.987 130.585C140.987 103.639 164.064 81.7949 192.531 81.7949C215.258 81.7949 234.549 95.7173 241.405 115.043C243.029 114.882 244.679 114.8 246.349 114.8C271.886 114.8 292.587 134.074 292.587 157.85C292.587 180.438 273.903 199.074 250.139 200.869V200.9H164.497H139.471Z" stroke="#543CDA" stroke-width="2.5" stroke-linecap="round"/>
<path fill-rule="evenodd" clip-rule="evenodd" d="M176.784 92.3319C176.784 138.572 220.779 176.675 277.428 181.819C270.329 190.082 259.365 195.688 246.876 196.568V196.595H145.146C132.803 196.595 112.184 191.673 112.184 170.117C112.184 148.561 128.214 143.639 145.146 143.639C145.866 143.639 146.58 143.66 147.288 143.703C146.796 141.284 146.71 138.791 146.54 136.25C145.39 119.083 153.302 97.4468 176.811 90.4053C176.792 91.0472 176.784 91.6888 176.784 92.3319ZM192.708 164.678C188.101 164.678 184.367 168.171 184.367 172.48C184.367 176.789 188.101 180.282 192.708 180.282C197.315 180.282 201.049 176.789 201.049 172.48C201.049 168.171 197.315 164.678 192.708 164.678Z" fill="#EAE8F7"/>
<path d="M193.289 180.81C197.894 180.81 201.627 177.277 201.627 172.918C201.627 168.559 197.894 165.025 193.289 165.025C188.684 165.025 184.951 168.559 184.951 172.918C184.951 177.277 188.684 180.81 193.289 180.81Z" stroke="#543CDA" stroke-width="2.5"/>
<path d="M169.793 156.415L180.405 148.532L169.793 141.028" stroke="#543CDA" stroke-width="2.5" stroke-linecap="round" stroke-linejoin="round"/>
<path d="M216.787 156.415L206.175 148.532L216.787 141.028" stroke="#543CDA" stroke-width="2.5" stroke-linecap="round" stroke-linejoin="round"/>
<path d="M207.691 96.1445C217.558 98.6164 225.35 105.921 228.066 115.22" stroke="#806EE4" stroke-width="2.5" stroke-linecap="round"/>
<path d="M239.528 71.7496C242.04 71.7496 244.076 69.8222 244.076 67.4446C244.076 65.0671 242.04 63.1396 239.528 63.1396C237.017 63.1396 234.98 65.0671 234.98 67.4446C234.98 69.8222 237.017 71.7496 239.528 71.7496Z" stroke="#806EE4" stroke-width="2"/>
<path d="M286.525 94.7096C289.036 94.7096 291.073 92.7822 291.073 90.4046C291.073 88.027 289.036 86.0996 286.525 86.0996C284.013 86.0996 281.977 88.027 281.977 90.4046C281.977 92.7822 284.013 94.7096 286.525 94.7096Z" fill="#806EE4"/>
<path d="M251.289 82.8818L263.96 94.8759M264.153 82.8818L251.482 94.8759L264.153 82.8818Z" stroke="#806EE4" stroke-width="2.5" stroke-linecap="round" stroke-linejoin="round"/>
<path d="M108.248 108.48L117.344 117.09M117.344 108.48L108.248 117.09L117.344 108.48Z" stroke="#806EE4" stroke-width="2.5" stroke-linecap="round" stroke-linejoin="round"/>
<path d="M128.861 99.0153C131.372 99.0153 133.409 97.0879 133.409 94.7103C133.409 92.3327 131.372 90.4053 128.861 90.4053C126.349 90.4053 124.312 92.3327 124.312 94.7103C124.312 97.0879 126.349 99.0153 128.861 99.0153Z" fill="#806EE4"/>
</svg>
