<svg width="20" height="20" viewBox="0 0 20 20" fill="none" xmlns="http://www.w3.org/2000/svg">
<path d="M7.23278 17.1063L1 18.7539L2.74518 12.8697L14.1581 2.14733C14.287 2.02279 14.4412 1.92383 14.6112 1.85627C14.7812 1.78871 14.9639 1.75391 15.1484 1.75391C15.3329 1.75391 15.5156 1.78871 15.6857 1.85627C15.8556 1.92383 16.0098 2.02279 16.1387 2.14733L18.5903 4.47487C18.7201 4.59643 18.8231 4.74106 18.8935 4.90039C18.9638 5.05974 19 5.23065 19 5.40327C19 5.57589 18.9638 5.74681 18.8935 5.90615C18.8231 6.0655 18.7201 6.21012 18.5903 6.33167L7.23278 17.1063Z" stroke="black" stroke-width="2" stroke-linecap="round" stroke-linejoin="round"/>
</svg>
