<svg width="21" height="22" viewBox="0 0 21 22" fill="none" xmlns="http://www.w3.org/2000/svg">
<path d="M0.642578 5.45898H20.3569" stroke="#C43131" stroke-linecap="round" stroke-linejoin="round"/>
<path d="M3.10742 5.45898H17.8931V19.6788C17.8931 20.0978 17.72 20.4998 17.4119 20.796C17.1039 21.0923 16.686 21.2588 16.2503 21.2588H4.75028C4.31456 21.2588 3.8967 21.0923 3.5886 20.796C3.28051 20.4998 3.10742 20.0978 3.10742 19.6788V5.45898Z" stroke="#C43131" stroke-linecap="round" stroke-linejoin="round"/>
<path d="M6.39258 5.4587V4.66871C6.39258 3.62111 6.82529 2.61642 7.59553 1.87566C8.36576 1.1349 9.41044 0.71875 10.4997 0.71875C11.589 0.71875 12.6337 1.1349 13.4039 1.87566C14.1742 2.61642 14.6069 3.62111 14.6069 4.66871V5.4587" stroke="#C43131" stroke-linecap="round" stroke-linejoin="round"/>
<path d="M8.03516 10.2012V16.5235" stroke="#C43131" stroke-linecap="round" stroke-linejoin="round"/>
<path d="M12.9648 10.2012V16.5235" stroke="#C43131" stroke-linecap="round" stroke-linejoin="round"/>
</svg>
