<svg width="101" height="95" viewBox="0 0 101 95" fill="none" xmlns="http://www.w3.org/2000/svg">
<path d="M40.3697 74.3053C61.4614 74.3053 78.5597 58.032 78.5597 37.9578C78.5597 17.8837 61.4614 1.61035 40.3697 1.61035C19.2779 1.61035 2.17969 17.8837 2.17969 37.9578C2.17969 58.032 19.2779 74.3053 40.3697 74.3053Z" fill="#F3F7FF" stroke="#543CDA" stroke-width="2.5"/>
<path fill-rule="evenodd" clip-rule="evenodd" d="M34.2507 66.161C36.2557 66.5132 38.2955 66.6962 40.3702 66.7101C57.0547 66.7101 70.5802 53.8371 70.5802 37.9576C70.5802 22.078 57.0547 9.20508 40.3702 9.20508C36.0842 9.20508 32.0066 10.0546 28.3133 11.5863C21.8951 14.248 16.6372 18.97 13.4616 24.8745C11.3509 28.799 10.1602 33.246 10.1602 37.9576C10.1602 42.2325 11.1404 46.2895 12.8986 49.9361C14.1538 52.5395 15.8056 54.9338 17.7803 57.0488" fill="white"/>
<path d="M34.2507 66.161C36.2557 66.5132 38.2955 66.6962 40.3702 66.7101C57.0547 66.7101 70.5802 53.8371 70.5802 37.9576C70.5802 22.078 57.0547 9.20508 40.3702 9.20508C36.0842 9.20508 32.0066 10.0546 28.3133 11.5863C21.8951 14.248 16.6372 18.97 13.4616 24.8745C11.3509 28.799 10.1602 33.246 10.1602 37.9576C10.1602 42.2325 11.1404 46.2895 12.8986 49.9361C14.1538 52.5395 15.8056 54.9338 17.7803 57.0488" stroke="#543CDA" stroke-width="2.5" stroke-linecap="round"/>
<path d="M21.3281 60.2812C23.777 62.1756 26.5436 63.7123 29.5401 64.8078" stroke="#543CDA" stroke-width="2.5" stroke-linecap="round"/>
<path d="M71.7188 66.71L78.5587 73.22" stroke="#543CDA" stroke-width="2.5"/>
<path fill-rule="evenodd" clip-rule="evenodd" d="M77.4542 72.1681C75.2965 74.2217 75.2965 77.5513 77.4542 79.6049L90.0914 91.6324C92.2491 93.686 95.7475 93.686 97.9052 91.6324C100.063 89.5788 100.063 86.2493 97.9052 84.1957L85.2679 72.1681C83.1102 70.1145 79.6119 70.1145 77.4542 72.1681Z" fill="#E8F0FE" stroke="#543CDA" stroke-width="2.5"/>
<path d="M83.1191 74.3057L95.6591 86.2407" stroke="white" stroke-width="2.5" stroke-linecap="round"/>
<path fill-rule="evenodd" clip-rule="evenodd" d="M32.9603 25.4806C32.9603 38.0645 43.6786 48.2657 56.9003 48.2657C59.4976 48.2657 61.9983 47.872 64.3402 47.1439C60.5177 56.1721 51.2259 62.545 40.3703 62.545C26.103 62.545 14.5371 51.5371 14.5371 37.9581C14.5371 25.6537 24.0337 15.4604 36.4316 13.6553C34.229 17.1037 32.9603 21.1511 32.9603 25.4806Z" fill="#E8F0FE"/>
<path d="M40.9393 17.8857C39.4876 17.8857 38.0693 18.0217 36.6977 18.2809M32.5543 19.4873C24.7557 22.6064 19.2793 29.9449 19.2793 38.5007" stroke="#543CDA" stroke-width="2.5" stroke-linecap="round"/>
</svg>
