<svg width="285" height="217" viewBox="0 0 285 217" fill="none" xmlns="http://www.w3.org/2000/svg">
<path fill-rule="evenodd" clip-rule="evenodd" d="M235.98 70.5254C240.387 70.5254 243.96 73.9258 243.96 78.1204C243.96 82.315 240.387 85.7154 235.98 85.7154H190.38C194.787 85.7154 198.36 89.1158 198.36 93.3104C198.36 97.505 194.787 100.905 190.38 100.905H215.46C219.867 100.905 223.44 104.306 223.44 108.5C223.44 112.695 219.867 116.095 215.46 116.095H203.862C198.305 116.095 193.8 119.496 193.8 123.69C193.8 126.487 196.08 129.018 200.64 131.285C205.047 131.285 208.62 134.686 208.62 138.88C208.62 143.075 205.047 146.475 200.64 146.475H106.02C101.613 146.475 98.0401 143.075 98.0401 138.88C98.0401 134.686 101.613 131.285 106.02 131.285H61.5601C57.1528 131.285 53.5801 127.885 53.5801 123.69C53.5801 119.496 57.1528 116.095 61.5601 116.095H107.16C111.567 116.095 115.14 112.695 115.14 108.5C115.14 104.306 111.567 100.905 107.16 100.905H78.6601C74.2528 100.905 70.6801 97.505 70.6801 93.3104C70.6801 89.1158 74.2528 85.7154 78.6601 85.7154H124.26C119.853 85.7154 116.28 82.315 116.28 78.1204C116.28 73.9258 119.853 70.5254 124.26 70.5254H235.98ZM235.98 100.905C240.387 100.905 243.96 104.306 243.96 108.5C243.96 112.695 240.387 116.095 235.98 116.095C231.573 116.095 228 112.695 228 108.5C228 104.306 231.573 100.905 235.98 100.905Z" fill="#F3F7FF"/>
</svg>
