<svg width="21" height="21" viewBox="0 0 21 21" fill="none" xmlns="http://www.w3.org/2000/svg">
<path d="M19.7705 20.2496C19.1407 18.2858 17.9036 16.5728 16.2377 15.3575C14.5716 14.1422 12.5627 13.4873 10.5005 13.4873C8.43826 13.4873 6.42932 14.1422 4.76329 15.3575C3.09727 16.5728 1.8602 18.2858 1.23047 20.2496H19.7705Z" stroke="#543CDA" stroke-linecap="round" stroke-linejoin="round"/>
<path d="M10.5004 13.4999C14.0064 13.4999 16.8486 10.6577 16.8486 7.15179C16.8486 3.64584 14.0064 0.803711 10.5004 0.803711C6.99448 0.803711 4.15234 3.64584 4.15234 7.15179C4.15234 10.6577 6.99448 13.4999 10.5004 13.4999Z" stroke="#543CDA" stroke-linecap="round" stroke-linejoin="round"/>
<path d="M12.5734 9.6084C12.5734 9.6084 12.0467 10.6448 10.5006 10.6448C8.95446 10.6448 8.42773 9.6084 8.42773 9.6084" stroke="#543CDA" stroke-linecap="round" stroke-linejoin="round"/>
<path d="M16.734 5.94316C16.7197 5.94325 16.7056 5.9433 16.6915 5.9433C14.8462 5.9433 13.1896 5.13601 12.0554 3.85537C10.9212 5.13604 9.26457 5.94334 7.41934 5.94334C6.34783 5.94334 5.33989 5.67111 4.46094 5.19204C5.28675 2.64517 7.67869 0.803711 10.5007 0.803711C13.5934 0.803711 16.1695 3.01527 16.734 5.94316Z" stroke="#543CDA" stroke-linecap="round" stroke-linejoin="round"/>
</svg>
