<svg width="21" height="21" viewBox="0 0 21 21" fill="none" xmlns="http://www.w3.org/2000/svg">
<g clip-path="url(#clip0_799_7854)">
<path d="M10.5 20.25C15.8849 20.25 20.25 15.8849 20.25 10.5C20.25 5.11523 15.8849 0.75 10.5 0.75C5.11523 0.75 0.75 5.11523 0.75 10.5C0.75 15.8849 5.11523 20.25 10.5 20.25Z" stroke="#543CDA" stroke-width="1.5" stroke-linecap="round" stroke-linejoin="round"/>
<path d="M15.2018 7.87418L12.9234 8.88408V7.67219C12.9234 7.45791 12.8383 7.25241 12.6868 7.1009C12.5352 6.94938 12.3297 6.86426 12.1155 6.86426H6.05598C5.8417 6.86426 5.6362 6.94938 5.48469 7.1009C5.33317 7.25241 5.24805 7.45791 5.24805 7.67219V13.3277C5.24805 13.542 5.33317 13.7475 5.48469 13.899C5.6362 14.0505 5.8417 14.1356 6.05598 14.1356H12.1155C12.3297 14.1356 12.5352 14.0505 12.6868 13.899C12.8383 13.7475 12.9234 13.542 12.9234 13.3277V12.1158L15.2018 13.1257C15.2632 13.1494 15.3295 13.1578 15.3949 13.15C15.4603 13.1422 15.5227 13.1186 15.577 13.0812C15.6311 13.0437 15.6752 12.9936 15.7057 12.9352C15.736 12.8768 15.7516 12.8118 15.7511 12.746V8.2539C15.7516 8.18807 15.736 8.1231 15.7057 8.06469C15.6752 8.00628 15.6311 7.95617 15.577 7.91874C15.5227 7.8813 15.4603 7.85768 15.3949 7.84991C15.3295 7.84214 15.2632 7.85048 15.2018 7.87418Z" stroke="#543CDA" stroke-width="1.5" stroke-linecap="round" stroke-linejoin="round"/>
</g>
<defs>
<clipPath id="clip0_799_7854">
<rect width="21" height="21" fill="white"/>
</clipPath>
</defs>
</svg>
